<svg id="visual" viewBox="0 0 900 450" width="900" height="450" xmlns="http://www.w3.org/2000/svg" xmlns:xlink="http://www.w3.org/1999/xlink" version="1.1"><rect x="0" y="0" width="900" height="450" fill="#001220"></rect><defs><linearGradient id="grad1_0" x1="50%" y1="0%" x2="100%" y2="100%"><stop offset="10%" stop-color="#001220" stop-opacity="1"></stop><stop offset="90%" stop-color="#001220" stop-opacity="1"></stop></linearGradient></defs><defs><linearGradient id="grad2_0" x1="0%" y1="0%" x2="50%" y2="100%"><stop offset="10%" stop-color="#001220" stop-opacity="1"></stop><stop offset="90%" stop-color="#001220" stop-opacity="1"></stop></linearGradient></defs><g transform="translate(900, 0)"><path d="M0 405C-42.2 369.5 -84.3 333.9 -130.5 315C-176.6 296.2 -226.8 294 -270.8 270.8C-314.9 247.7 -352.8 203.6 -374.2 155C-395.5 106.4 -400.3 53.2 -405 0L0 0Z" fill="#FBAE3C"></path></g><g transform="translate(0, 450)"><path d="M0 -405C46.3 -377.9 92.5 -350.8 136.2 -328.9C180 -307 221.1 -290.4 263.8 -263.8C306.4 -237.1 350.4 -200.6 374.2 -155C398 -109.4 401.5 -54.7 405 0L0 0Z" fill="#FBAE3C"></path></g></svg>